<svg xmlns="http://www.w3.org/2000/svg" viewBox="0 0 257 306"><title>Asset 3</title><g id="aebca873-ddf9-4d72-858e-0de905de8026" data-name="Layer 2"><g id="cd4a1048-253d-4468-a80e-511d2e6e0a8f" data-name="Layer 1"><path d="M44.34,164.54c.05,17.18,1.87,34.12,8.53,50.25,12.08,29.27,38.32,47,70,47.27,12.69.11,25.27-.46,37.43-4.51,28-9.34,44.33-29,49.59-57.7a190.9,190.9,0,0,0,2.87-33.22c.3-53.3.17-106.6.18-159.89,0-2,0-4,0-6.73H257V179c-1.34,10-2,20.15-4.13,30-10.57,48.32-39.18,79.88-87.56,92.45-7.65,2-15.53,3.08-23.31,4.58H118c-5.49-1-11-2.09-16.47-3-25.68-4.43-48-15.33-65.93-34.49C12.77,244.13,3,214.55,1.1,181.9.53,172.28.36,162.63,0,153V0H44.19c0,2.48,0,4.56,0,6.64"/></g></g></svg>